<svg xmlns="http://www.w3.org/2000/svg" version="1.1" xmlns:xlink="http://www.w3.org/1999/xlink" xmlns:svgjs="http://svgjs.dev/svgjs" width="1000" height="1000" viewBox="0 0 1000 1000"><rect width="1000" height="1000" fill="#ffffff"></rect><g transform="matrix(0.7,0,0,0.7,150.0000000000001,106.25)"><svg viewBox="0 0 320 360" data-background-color="#ffffff" preserveAspectRatio="xMidYMid meet" height="1125" width="1000" xmlns="http://www.w3.org/2000/svg" xmlns:xlink="http://www.w3.org/1999/xlink"><g id="tight-bounds" transform="matrix(1,0,0,1,0,0)"><svg viewBox="0 0 320 360" height="360" width="320"><g><svg></svg></g><g><svg viewBox="0 0 320 360" height="360" width="320"><g><path xmlns="http://www.w3.org/2000/svg" d="M20.961 227.22l3.726 4.658-1.863-6.056c-0.466-2.795-3.726 0.466-1.863 1.398M25.153 224.425c1.397 2.329 2.795 4.658 2.795 6.987 0 3.261 2.795 4.658 5.123 5.589-3.261-3.726-5.124-13.974-7.918-12.576M204.017 26.929c7.918 0 15.371-0.932 23.756 0.931 20.495 5.124 37.729 15.371 49.374 29.811l32.606 52.169c1.397 13.042 4.192 27.482 3.726 43.319 3.261 0 2.795-4.658 6.521-5.59-3.726 9.316-5.59 20.961-6.521 34.469-2.329-7.453 0-18.632 0.466-24.687-3.261 5.124-5.124 1.397-5.124-0.932 0.466-3.726-1.397-3.261-2.795-4.658-5.124-4.658-8.384-9.782-12.11-17.7 2.329-6.055 2.795-14.905-4.658-19.563-2.329-1.397-5.124-3.726-6.521-7.453-1.863-5.124-5.124-11.179-4.193-19.097 0.466-2.329-6.987 5.124-11.179 1.863-18.166-12.576-36.332-27.016-58.224-39.127-11.645 0-20.029-4.192-24.221-9.316-3.726-4.658-0.932-10.713 4.658-11.179 3.261 0 6.987-0.932 9.782 0.932 0.466-1.863 2.329-4.192 4.657-4.192M157.904 16.215l0.932 0.466c4.658 0.932 6.987 7.453 12.11 5.124 0 3.261 0.466 6.521-0.466 8.85-1.397 3.726-5.59 3.726-8.85 3.726-31.208-1.863-49.374 11.179-68.471 22.358-5.124 3.261-10.713 5.59-14.906 9.782-20.029 18.632-41.921 35.866-47.045 70.335l-4.192 38.195c-0.466 4.192-5.124 8.384-4.192 13.508l3.26 22.824c-3.261-3.261-5.124 0.932-4.192 2.795 0.466 1.397 2.329 6.055 5.124 1.863 3.726 6.987 7.453 20.495 12.576 26.55 15.837 18.632 36.332 35.4 53.101 52.169 4.192-0.932 7.453-0.932 8.384-3.727 1.397 2.795-1.397 5.59-3.726 6.056 7.453 4.658 15.837 8.85 27.016 9.781 14.44 0.932 27.948 3.261 40.524 6.522 6.521-1.863 13.042-2.795 20.029-3.261 2.329 0 3.726-3.726 6.521-4.658l0.466-4.658c2.795 4.192 2.329-1.397 0.466-4.192 3.261 2.795 4.192 5.124 5.589 6.987 0-1.397 3.726-6.521 3.727-0.466l0.931-6.055c1.397-0.932 1.863 5.124 3.261 0.931 1.397-4.192 4.192-0.932 6.987-2.329-0.932 1.863-0.466 5.59 2.794 3.261l3.727-3.261c2.329 5.59 6.055 3.261 7.918 2.329 20.495-13.042 40.99-28.413 60.553-43.784l-0.466 6.055 2.329-7.453c2.329 2.329 4.192 0.466 5.124-0.931 2.795-4.658 6.521-9.316 12.577-13.508-7.453 20.029-16.303 35.866-27.482 48.908l-4.658 5.59c0 3.261-0.932 7.453-4.658 7.918-1.863 0.466-5.59-0.932-8.384 1.863-1.397 1.863 3.261 5.59-0.466 2.795-3.261-2.329-6.521 0-10.248 0.932-2.795 0.932 1.863 3.726 2.795 5.589 0.932 1.863 1.863 3.726 1.398 6.056l-5.124-5.59c-6.055 3.261-9.782 9.316-14.906 13.974-2.329 1.863-1.397 5.124-1.397 7.918-3.261 0-6.987-0.932-8.85 0.932-1.397 1.863-0.932 4.658-0.932 7.453-4.658-0.466-5.124-7.453-9.315-6.056-4.192 0.932-8.85 1.397-12.577 3.727 2.795 5.59-4.658 2.329-3.726 3.26-6.987-4.192-13.042-7.453-20.495-4.658-15.837-5.124-35.4-2.795-49.84-0.931 0-2.329 0.466-4.658-0.466-5.124-0.932 2.329-3.726 1.397-3.26 1.397-8.85-6.055-17.7-9.782-27.016-14.905-8.384 0.932-16.303-3.261-18.632-5.59-6.521-6.055-13.974-2.795-20.029-4.192-13.042-3.261-17.7-16.769-19.098-26.084-0.932-4.658-4.658-6.521-6.055-6.056-6.055-19.563-15.371-37.263-22.824-55.429-1.863-4.658-1.397-9.316-1.397-14.44 2.329 0.932 4.658 0.466 4.192-2.794-2.329-15.371-7.918-27.016-13.974-38.195 3.261-15.837 3.726-34.469 11.179-48.443 6.521-12.576 18.632-19.098 27.016-29.811 2.795-3.726 2.795-8.85 5.59-12.11 9.316-9.316 18.632-19.098 28.879-27.482 4.658-3.726 10.247 0 17.234-1.397 2.329-8.384 11.645-15.837 20.495-13.508 3.726 0.932 11.179-8.85 13.508-9.782 3.726-1.397 1.863 3.726 1.863 6.987 8.85-6.987 20.961-10.713 32.14-14.906" fill="#010c80" fill-rule="nonzero" stroke="none" stroke-width="1" stroke-linecap="butt" stroke-linejoin="miter" stroke-miterlimit="10" stroke-dasharray="" stroke-dashoffset="0" font-family="none" font-weight="none" font-size="none" text-anchor="none" style="mix-blend-mode: normal" data-fill-palette-color="tertiary"></path></g><g transform="matrix(1,0,0,1,64,118.21821387747593)"><svg viewBox="0 0 192 123.56357224504814" height="123.56357224504814" width="192"><g><svg viewBox="0 0 192 123.56357224504814" height="123.56357224504814" width="192"><g><svg viewBox="0 0 192 123.56357224504814" height="123.56357224504814" width="192"><g transform="matrix(1,0,0,1,0,59.87824636968573)"><svg viewBox="0 0 192 63.68532587536241" height="63.68532587536241" width="192"><g><svg viewBox="0 0 192 63.68532587536241" height="63.68532587536241" width="192"><g><svg viewBox="0 0 192 39.796054090002215" height="39.796054090002215" width="192"><g transform="matrix(1,0,0,1,0,0)"><svg width="192" viewBox="3.25 -36.95000076293945 225.52999877929688 46.75" height="39.796054090002215" data-palette-color="#010c80"><path d="M14.75 0L14.75 0 3.25 0 3.25-33.7 14.85-33.7Q22.45-33.7 27.3-29.03 32.15-24.35 32.15-17.4L32.15-17.4Q32.15-9.3 27.38-4.65 22.6 0 14.75 0ZM14.6-27.35L14.6-27.35 11.15-27.35 11.15-6.3 14.65-6.3Q19.3-6.3 21.83-9.2 24.35-12.1 24.35-17.4L24.35-17.4Q24.35-21.9 21.8-24.63 19.25-27.35 14.6-27.35ZM51.95 0L51.95 0 37.4 0 37.4-33.7 50.5-33.7Q56.05-33.7 58.95-31.08 61.85-28.45 61.85-24.4L61.85-24.4Q61.85-21.75 60.45-19.75 59.05-17.75 56.8-17.05L56.8-17.05Q62.65-15.3 62.65-9.15L62.65-9.15Q62.65-5.15 59.77-2.58 56.9 0 51.95 0ZM49.2-27.55L49.2-27.55 45.1-27.55 45.1-20 47.95-20Q50.95-20 52.47-21.1 54-22.2 54-24L54-24Q54-27.55 49.2-27.55ZM49.2-13.95L49.2-13.95 45.1-13.95 45.1-6.15 49.15-6.15Q54.85-6.15 54.85-10.05 54.85-13.95 49.2-13.95ZM91.64 0L91.64 0 80.14 0 80.14-33.7 91.74-33.7Q99.34-33.7 104.19-29.03 109.04-24.35 109.04-17.4L109.04-17.4Q109.04-9.3 104.27-4.65 99.49 0 91.64 0ZM91.49-27.35L91.49-27.35 88.04-27.35 88.04-6.3 91.54-6.3Q96.19-6.3 98.72-9.2 101.24-12.1 101.24-17.4L101.24-17.4Q101.24-21.9 98.69-24.63 96.14-27.35 91.49-27.35ZM133.94-7.55L133.94-1.45Q131.34 0.25 125.99 0.25L125.99 0.25Q119.74 0.25 116.27-3.38 112.79-7 112.79-12.7L112.79-12.7Q112.79-18.75 116.17-22.18 119.54-25.6 124.49-25.6L124.49-25.6Q129.59-25.6 132.54-22.63 135.49-19.65 135.49-13.75L135.49-13.75Q135.49-12.6 135.09-9.8L135.09-9.8 120.19-9.8Q120.94-7.7 122.79-6.55 124.64-5.4 127.24-5.4L127.24-5.4Q131.09-5.4 133.94-7.55L133.94-7.55ZM124.79-20.05L124.79-20.05Q123.04-20.05 121.69-18.78 120.34-17.5 119.89-15L119.89-15 128.69-15 128.69-15.6Q128.34-20.05 124.79-20.05ZM157.99-7.65L157.99-7.65Q157.99-3.9 155.29-1.85 152.59 0.2 148.14 0.2L148.14 0.2Q143.54 0.2 140.44-1.35L140.44-1.35 140.44-7.85Q143.89-5.45 147.74-5.45L147.74-5.45Q150.49-5.45 150.49-7.2L150.49-7.2Q150.49-7.65 150.24-8.05 149.99-8.45 149.39-8.8 148.79-9.15 148.29-9.38 147.79-9.6 146.84-10 145.89-10.4 145.39-10.65L145.39-10.65Q140.34-13.05 140.34-17.85L140.34-17.85Q140.34-21.55 143.16-23.6 145.99-25.65 150.19-25.65L150.19-25.65Q154.09-25.65 156.69-24.6L156.69-24.6 156.69-18.35Q154.04-19.9 150.49-19.9L150.49-19.9Q149.19-19.9 148.49-19.38 147.79-18.85 147.79-18.05L147.79-18.05Q147.79-17.6 148.04-17.2 148.29-16.8 148.86-16.45 149.44-16.1 149.96-15.83 150.49-15.55 151.41-15.15 152.34-14.75 152.89-14.45L152.89-14.45Q155.19-13.25 156.59-11.68 157.99-10.1 157.99-7.65ZM170.04-25.35L170.04 0 162.74 0 162.74-25.35 170.04-25.35ZM169.39-35.7Q170.64-34.45 170.64-32.7 170.64-30.95 169.39-29.7 168.14-28.45 166.39-28.45 164.64-28.45 163.39-29.7 162.14-30.95 162.14-32.7 162.14-34.45 163.39-35.7 164.64-36.95 166.39-36.95 168.14-36.95 169.39-35.7ZM199.78-25.35L199.78-2.45Q199.78 3.65 196.13 6.73 192.48 9.8 186.98 9.8L186.98 9.8Q181.63 9.8 177.63 7.9L177.63 7.9 177.63 0.45Q181.13 3.25 186.23 3.25L186.23 3.25Q189.53 3.25 191.03 1.85 192.53 0.45 192.53-2.55L192.53-2.55 192.53-4.25Q190.33-0.85 185.53-0.85L185.53-0.85Q181.33-0.85 178.31-3.95 175.28-7.05 175.28-13.15L175.28-13.15Q175.28-18.55 178.21-22.08 181.13-25.6 185.88-25.6L185.88-25.6Q190.38-25.6 192.53-22L192.53-22 192.53-25.35 199.78-25.35ZM182.88-13.1L182.88-13.1Q182.88-9.95 184.08-8.3 185.28-6.65 187.53-6.65L187.53-6.65Q189.88-6.65 191.21-8.43 192.53-10.2 192.53-12.7L192.53-12.7Q192.53-19.5 187.58-19.5L187.58-19.5Q185.38-19.5 184.13-17.8 182.88-16.1 182.88-13.1ZM228.78-16.45L228.78 0 221.48 0 221.48-15.1Q221.48-17.35 220.43-18.53 219.38-19.7 217.48-19.7L217.48-19.7Q215.48-19.7 214.16-18.13 212.83-16.55 212.83-13.4L212.83-13.4 212.83 0 205.53 0 205.53-25.35 212.83-25.35 212.83-21.05Q213.78-23.15 215.76-24.38 217.73-25.6 220.48-25.6L220.48-25.6Q224.38-25.6 226.58-23.28 228.78-20.95 228.78-16.45L228.78-16.45Z" opacity="1" transform="matrix(1,0,0,1,0,0)" fill="#010c80" class="undefined-text-0" data-fill-palette-color="primary" id="text-0"></path></svg></g></svg></g><g transform="matrix(1,0,0,1,0,45.6032534870317)"><svg viewBox="0 0 192 18.08207238833071" height="18.08207238833071" width="192"><g transform="matrix(1,0,0,1,0,0)"><svg width="192" viewBox="4.46999979019165 -37.5 403.32000732421875 37.9900016784668" height="18.08207238833071" data-palette-color="#010c80"><path d="M9.2-35.55L9.2 0 4.47 0 4.47-35.55 9.2-35.55ZM21.6-20.78L21.6 0 17.04 0 17.04-26.42 21.36-26.42 21.6-20.78ZM20.53-14.23L18.63-14.31Q18.67-17.92 20.02-20.76 21.36-23.61 23.76-25.26 26.17-26.9 29.37-26.9L29.37-26.9Q31.98-26.9 33.87-25.94 35.76-24.98 36.8-22.88 37.84-20.78 37.84-17.31L37.84-17.31 37.84 0 33.27 0 33.27-17.36Q33.27-19.43 32.68-20.7 32.08-21.97 30.91-22.55 29.73-23.12 28.02-23.12L28.02-23.12Q26.34-23.12 24.97-22.41 23.61-21.7 22.6-20.46 21.6-19.21 21.07-17.61 20.53-16.02 20.53-14.23L20.53-14.23ZM55.76-26.42L55.76-22.97 41.45-22.97 41.45-26.42 55.76-26.42ZM46.26-32.84L50.83-32.84 50.83-6.54Q50.83-5.18 51.24-4.49 51.66-3.81 52.31-3.59 52.97-3.37 53.73-3.37L53.73-3.37Q54.29-3.37 54.91-3.47 55.54-3.56 55.83-3.64L55.83-3.64 55.85 0Q55.32 0.17 54.45 0.33 53.58 0.49 52.36 0.49L52.36 0.49Q50.7 0.49 49.31-0.17 47.92-0.83 47.09-2.38 46.26-3.93 46.26-6.57L46.26-6.57 46.26-32.84ZM71.99 0.49L71.99 0.49Q68.3 0.49 65.58-1.16 62.86-2.81 61.36-5.69 59.86-8.57 59.86-12.28L59.86-12.28 59.86-13.33Q59.86-17.63 61.5-20.67 63.15-23.71 65.8-25.31 68.45-26.9 71.4-26.9L71.4-26.9Q75.21-26.9 77.62-25.21 80.02-23.51 81.16-20.59 82.29-17.68 82.29-13.99L82.29-13.99 82.29-11.96 62.57-11.96 62.57-15.63 77.73-15.63 77.73-15.97Q77.63-17.72 77.02-19.4 76.41-21.07 75.07-22.16 73.72-23.24 71.4-23.24L71.4-23.24Q69.35-23.24 67.78-22.08 66.2-20.92 65.31-18.71 64.42-16.5 64.42-13.33L64.42-13.33 64.42-12.28Q64.42-9.77 65.35-7.7 66.28-5.64 68.03-4.41 69.79-3.17 72.23-3.17L72.23-3.17Q74.63-3.17 76.29-4.15 77.95-5.13 79.19-6.76L79.19-6.76 81.95-4.61Q80.68-2.66 78.3-1.09 75.92 0.49 71.99 0.49ZM92.1-22.27L92.1 0 87.54 0 87.54-26.42 91.98-26.42 92.1-22.27ZM100.33-26.56L100.33-22.39Q99.75-22.51 99.25-22.55 98.74-22.58 98.11-22.58L98.11-22.58Q96.03-22.58 94.61-21.73 93.18-20.87 92.4-19.37 91.62-17.87 91.42-15.94L91.42-15.94 90.13-15.21Q90.13-18.41 90.98-21.06 91.84-23.71 93.65-25.31 95.47-26.9 98.33-26.9L98.33-26.9Q98.79-26.9 99.44-26.79 100.09-26.68 100.33-26.56L100.33-26.56ZM109.05-20.78L109.05 0 104.48 0 104.48-26.42 108.8-26.42 109.05-20.78ZM107.97-14.23L106.07-14.31Q106.12-17.92 107.46-20.76 108.8-23.61 111.21-25.26 113.61-26.9 116.81-26.9L116.81-26.9Q119.42-26.9 121.31-25.94 123.21-24.98 124.24-22.88 125.28-20.78 125.28-17.31L125.28-17.31 125.28 0 120.72 0 120.72-17.36Q120.72-19.43 120.12-20.7 119.52-21.97 118.35-22.55 117.18-23.12 115.47-23.12L115.47-23.12Q113.78-23.12 112.41-22.41 111.05-21.7 110.05-20.46 109.05-19.21 108.51-17.61 107.97-16.02 107.97-14.23L107.97-14.23ZM143.08 0.49L143.08 0.49Q139.39 0.49 136.67-1.16 133.94-2.81 132.44-5.69 130.94-8.57 130.94-12.28L130.94-12.28 130.94-13.33Q130.94-17.63 132.59-20.67 134.24-23.71 136.89-25.31 139.54-26.9 142.49-26.9L142.49-26.9Q146.3-26.9 148.7-25.21 151.11-23.51 152.24-20.59 153.38-17.68 153.38-13.99L153.38-13.99 153.38-11.96 133.65-11.96 133.65-15.63 148.81-15.63 148.81-15.97Q148.72-17.72 148.11-19.4 147.49-21.07 146.15-22.16 144.81-23.24 142.49-23.24L142.49-23.24Q140.44-23.24 138.86-22.08 137.29-20.92 136.4-18.71 135.51-16.5 135.51-13.33L135.51-13.33 135.51-12.28Q135.51-9.77 136.44-7.7 137.36-5.64 139.12-4.41 140.88-3.17 143.32-3.17L143.32-3.17Q145.71-3.17 147.37-4.15 149.03-5.13 150.28-6.76L150.28-6.76 153.04-4.61Q151.77-2.66 149.39-1.09 147.01 0.49 143.08 0.49ZM169.73-26.42L169.73-22.97 155.43-22.97 155.43-26.42 169.73-26.42ZM160.24-32.84L164.8-32.84 164.8-6.54Q164.8-5.18 165.22-4.49 165.63-3.81 166.29-3.59 166.95-3.37 167.71-3.37L167.71-3.37Q168.27-3.37 168.89-3.47 169.51-3.56 169.81-3.64L169.81-3.64 169.83 0Q169.29 0.17 168.43 0.33 167.56 0.49 166.34 0.49L166.34 0.49Q164.68 0.49 163.29-0.17 161.9-0.83 161.07-2.38 160.24-3.93 160.24-6.57L160.24-6.57 160.24-32.84ZM201.27-32.42L189.53 0 184.65 0 198.22-35.55 201.34-35.55 201.27-32.42ZM211.11 0L199.32-32.42 199.27-35.55 202.37-35.55 215.97 0 211.11 0ZM210.52-13.13L210.52-9.3 190.53-9.3 190.53-13.13 210.52-13.13ZM224.61-22.27L224.61 0 220.04 0 220.04-26.42 224.49-26.42 224.61-22.27ZM232.84-26.56L232.84-22.39Q232.25-22.51 231.75-22.55 231.25-22.58 230.61-22.58L230.61-22.58Q228.54-22.58 227.11-21.73 225.68-20.87 224.9-19.37 224.12-17.87 223.93-15.94L223.93-15.94 222.63-15.21Q222.63-18.41 223.49-21.06 224.34-23.71 226.16-25.31 227.98-26.9 230.83-26.9L230.83-26.9Q231.3-26.9 231.95-26.79 232.59-26.68 232.84-26.56L232.84-26.56ZM247.12-3.17L247.12-3.17Q248.73-3.17 250.09-3.85 251.46-4.52 252.34-5.69 253.22-6.86 253.34-8.35L253.34-8.35 257.66-8.35Q257.54-6.01 256.08-3.99 254.61-1.98 252.27-0.74 249.92 0.49 247.12 0.49L247.12 0.49Q243.14 0.49 240.52-1.33 237.91-3.15 236.63-6.15 235.35-9.16 235.35-12.7L235.35-12.7 235.35-13.72Q235.35-17.29 236.64-20.28 237.94-23.27 240.55-25.09 243.16-26.9 247.12-26.9L247.12-26.9Q250.22-26.9 252.55-25.65 254.88-24.39 256.21-22.23 257.54-20.07 257.66-17.33L257.66-17.33 253.34-17.33Q253.22-18.97 252.43-20.31 251.63-21.66 250.28-22.45 248.92-23.24 247.12-23.24L247.12-23.24Q244.36-23.24 242.78-21.83 241.21-20.41 240.56-18.23 239.91-16.04 239.91-13.72L239.91-13.72 239.91-12.7Q239.91-10.38 240.55-8.18 241.18-5.98 242.76-4.58 244.33-3.17 247.12-3.17ZM267.28-37.5L267.28 0 262.71 0 262.71-37.5 267.28-37.5ZM266.21-14.23L264.3-14.31Q264.35-17.92 265.69-20.76 267.04-23.61 269.44-25.26 271.85-26.9 275.04-26.9L275.04-26.9Q277.66-26.9 279.55-25.94 281.44-24.98 282.48-22.88 283.51-20.78 283.51-17.31L283.51-17.31 283.51 0 278.95 0 278.95-17.36Q278.95-19.43 278.35-20.7 277.75-21.97 276.58-22.55 275.41-23.12 273.7-23.12L273.7-23.12Q272.02-23.12 270.65-22.41 269.28-21.7 268.28-20.46 267.28-19.21 266.74-17.61 266.21-16.02 266.21-14.23L266.21-14.23ZM295.21-26.42L295.21 0 290.64 0 290.64-26.42 295.21-26.42ZM290.3-33.45L290.3-33.45Q290.3-34.52 290.97-35.28 291.64-36.04 292.96-36.04L292.96-36.04Q294.28-36.04 294.97-35.28 295.67-34.52 295.67-33.45L295.67-33.45Q295.67-32.4 294.97-31.65 294.28-30.91 292.96-30.91L292.96-30.91Q291.64-30.91 290.97-31.65 290.3-32.4 290.3-33.45ZM313.51-26.42L313.51-22.97 299.21-22.97 299.21-26.42 313.51-26.42ZM304.02-32.84L308.58-32.84 308.58-6.54Q308.58-5.18 309-4.49 309.41-3.81 310.07-3.59 310.73-3.37 311.49-3.37L311.49-3.37Q312.05-3.37 312.67-3.47 313.3-3.56 313.59-3.64L313.59-3.64 313.61 0Q313.08 0.17 312.21 0.33 311.34 0.49 310.12 0.49L310.12 0.49Q308.46 0.49 307.07-0.17 305.68-0.83 304.85-2.38 304.02-3.93 304.02-6.57L304.02-6.57 304.02-32.84ZM329.75 0.49L329.75 0.49Q326.06 0.49 323.34-1.16 320.62-2.81 319.12-5.69 317.61-8.57 317.61-12.28L317.61-12.28 317.61-13.33Q317.61-17.63 319.26-20.67 320.91-23.71 323.56-25.31 326.21-26.9 329.16-26.9L329.16-26.9Q332.97-26.9 335.38-25.21 337.78-23.51 338.92-20.59 340.05-17.68 340.05-13.99L340.05-13.99 340.05-11.96 320.32-11.96 320.32-15.63 335.48-15.63 335.48-15.97Q335.39-17.72 334.78-19.4 334.17-21.07 332.82-22.16 331.48-23.24 329.16-23.24L329.16-23.24Q327.11-23.24 325.54-22.08 323.96-20.92 323.07-18.71 322.18-16.5 322.18-13.33L322.18-13.33 322.18-12.28Q322.18-9.77 323.11-7.7 324.03-5.64 325.79-4.41 327.55-3.17 329.99-3.17L329.99-3.17Q332.38-3.17 334.04-4.15 335.7-5.13 336.95-6.76L336.95-6.76 339.71-4.61Q338.44-2.66 336.06-1.09 333.68 0.49 329.75 0.49ZM355.89-3.17L355.89-3.17Q357.5-3.17 358.87-3.85 360.24-4.52 361.12-5.69 362-6.86 362.12-8.35L362.12-8.35 366.44-8.35Q366.32-6.01 364.85-3.99 363.39-1.98 361.04-0.74 358.7 0.49 355.89 0.49L355.89 0.49Q351.91 0.49 349.3-1.33 346.69-3.15 345.41-6.15 344.13-9.16 344.13-12.7L344.13-12.7 344.13-13.72Q344.13-17.29 345.42-20.28 346.71-23.27 349.33-25.09 351.94-26.9 355.89-26.9L355.89-26.9Q358.99-26.9 361.32-25.65 363.66-24.39 364.99-22.23 366.32-20.07 366.44-17.33L366.44-17.33 362.12-17.33Q362-18.97 361.2-20.31 360.41-21.66 359.05-22.45 357.7-23.24 355.89-23.24L355.89-23.24Q353.13-23.24 351.56-21.83 349.98-20.41 349.34-18.23 348.69-16.04 348.69-13.72L348.69-13.72 348.69-12.7Q348.69-10.38 349.33-8.18 349.96-5.98 351.53-4.58 353.11-3.17 355.89-3.17ZM382.6-26.42L382.6-22.97 368.29-22.97 368.29-26.42 382.6-26.42ZM373.1-32.84L377.67-32.84 377.67-6.54Q377.67-5.18 378.08-4.49 378.5-3.81 379.16-3.59 379.82-3.37 380.57-3.37L380.57-3.37Q381.13-3.37 381.76-3.47 382.38-3.56 382.67-3.64L382.67-3.64 382.7 0Q382.16 0.17 381.29 0.33 380.43 0.49 379.21 0.49L379.21 0.49Q377.55 0.49 376.15-0.17 374.76-0.83 373.93-2.38 373.1-3.93 373.1-6.57L373.1-6.57 373.1-32.84ZM403.23-7.01L403.23-7.01Q403.23-7.98 402.8-8.83 402.37-9.67 401.08-10.36 399.78-11.06 397.17-11.6L397.17-11.6Q394.24-12.21 392.11-13.15 389.97-14.09 388.81-15.55 387.65-17.02 387.65-19.19L387.65-19.19Q387.65-21.29 388.86-23.03 390.07-24.78 392.28-25.84 394.49-26.9 397.44-26.9L397.44-26.9Q400.61-26.9 402.87-25.79 405.13-24.68 406.33-22.81 407.52-20.95 407.52-18.68L407.52-18.68 402.96-18.68Q402.96-20.31 401.53-21.78 400.1-23.24 397.44-23.24L397.44-23.24Q395.58-23.24 394.43-22.67 393.27-22.09 392.74-21.2 392.22-20.31 392.22-19.34L392.22-19.34Q392.22-18.36 392.7-17.64 393.19-16.92 394.5-16.36 395.8-15.8 398.29-15.23L398.29-15.23Q401.54-14.5 403.64-13.48 405.74-12.45 406.77-10.96 407.79-9.47 407.79-7.32L407.79-7.32Q407.79-5.03 406.52-3.26 405.25-1.49 402.96-0.5 400.66 0.49 397.56 0.49L397.56 0.49Q394.07 0.49 391.65-0.76 389.24-2 387.99-3.97 386.75-5.93 386.75-8.13L386.75-8.13 391.31-8.13Q391.43-6.27 392.4-5.19 393.36-4.1 394.77-3.64 396.17-3.17 397.56-3.17L397.56-3.17Q399.42-3.17 400.68-3.67 401.93-4.17 402.58-5.04 403.23-5.91 403.23-7.01Z" opacity="1" transform="matrix(1,0,0,1,0,0)" fill="#010c80" class="undefined-text-1" data-fill-palette-color="secondary" id="text-1"></path></svg></g></svg></g></svg></g></svg></g><g transform="matrix(1,0,0,1,36.672,0)"><svg viewBox="0 0 118.656 54.07104697265625" height="54.07104697265625" width="118.656"><g><svg xmlns="http://www.w3.org/2000/svg" xmlns:xlink="http://www.w3.org/1999/xlink" version="1.1" x="0" y="0" viewBox="5 29.493873596191406 90 41.01262664794922" enable-background="new 0 0 100 100" xml:space="preserve" height="54.07104697265625" width="118.656" class="icon-icon-0" data-fill-palette-color="accent" id="icon-0"><g fill="#010c80" data-fill-palette-color="accent"><path d="M23.943 30.807L5 50.001l18.942 19.192c1.728 1.751 4.53 1.751 6.258 0.002 1.729-1.75 1.73-4.587 0.002-6.338L18.193 50.695l-3.624 2.289 15.634-15.841c0.864-0.875 1.295-2.021 1.295-3.168 0-1.147-0.433-2.295-1.297-3.17C28.473 29.056 25.671 29.057 23.943 30.807z" fill="#010c80" data-fill-palette-color="accent"></path><path d="M76.057 30.808L95 50.001 76.058 69.193c-1.728 1.751-4.53 1.751-6.258 0.002-1.729-1.75-1.73-4.587-0.002-6.338l12.009-12.161 3.624 2.289L69.796 37.144c-0.864-0.875-1.295-2.021-1.295-3.168 0-1.147 0.433-2.295 1.297-3.17C71.527 29.056 74.329 29.057 76.057 30.808z" fill="#010c80" data-fill-palette-color="accent"></path><path d="M60.899 32.352c-0.419-1.068-1.241-1.978-2.366-2.476-2.249-0.997-4.857 0.028-5.825 2.288l-13.82 32.062c-0.484 1.13-0.467 2.355-0.048 3.422 0.419 1.068 1.241 1.978 2.366 2.476 2.249 0.997 4.857-0.028 5.825-2.288l13.82-32.062C61.335 34.644 61.318 33.419 60.899 32.352z" fill="#010c80" data-fill-palette-color="accent"></path></g></svg></g></svg></g><g></g></svg></g></svg></g></svg></g></svg></g><defs></defs></svg><rect width="320" height="360" fill="none" stroke="none" visibility="hidden"></rect></g></svg></g></svg>